<svg xmlns="http://www.w3.org/2000/svg" viewBox="0 0 37 13"><path d="M1.915,6.701V2.885H0.667V2.537h0.852c0.14,0,0.244-0.03,0.312-0.09c0.068-0.06,0.102-0.154,0.102-0.282V1.733h0.414v4.968H1.915z M1.717,10.061l4.686-8.364h0.462l-4.686,8.364H1.717z M5.899,9.659h3.012v0.402h-3.57V9.659c0.556-0.352,1.028-0.673,1.416-0.963c0.388-0.29,0.726-0.626,1.014-1.008s0.432-0.781,0.432-1.197c0-0.324-0.09-0.58-0.27-0.768c-0.18-0.188-0.438-0.282-0.774-0.282c-0.372,0-0.656,0.12-0.852,0.36c-0.196,0.24-0.296,0.558-0.3,0.954L5.581,6.731c0-0.324,0.062-0.614,0.186-0.87c0.124-0.256,0.305-0.456,0.543-0.6c0.238-0.144,0.521-0.216,0.849-0.216c0.296,0,0.555,0.058,0.777,0.174C8.158,5.335,8.331,5.502,8.455,5.72c0.124,0.218,0.186,0.477,0.186,0.777c0,1.068-0.882,2.12-2.646,3.156L5.899,9.659z"/><path d="M14.761,6.701V2.885h-1.248V2.537h0.852c0.14,0,0.244-0.03,0.312-0.09c0.068-0.06,0.102-0.154,0.102-0.282V1.733h0.414v4.968H14.761z M14.562,10.061l4.686-8.364h0.462l-4.686,8.364H14.562z M20.94,5.093v3.354h0.81v0.402h-0.81v1.212h-0.432V8.849h-2.496v-0.27l2.532-3.486H20.94z M20.509,5.735l-1.938,2.712h1.938V5.735z"/><path d="M29.581,6.068c-0.152,0.222-0.359,0.391-0.621,0.507c-0.262,0.116-0.555,0.174-0.879,0.174c-0.332,0-0.629-0.06-0.891-0.18c-0.262-0.12-0.467-0.294-0.615-0.522s-0.222-0.5-0.222-0.816l0.414-0.03c0,0.356,0.121,0.636,0.363,0.84c0.242,0.204,0.561,0.306,0.957,0.306c0.244,0,0.465-0.043,0.663-0.129c0.198-0.086,0.354-0.211,0.468-0.375c0.114-0.164,0.171-0.36,0.171-0.588c0-0.388-0.154-0.656-0.462-0.804c-0.308-0.148-0.672-0.22-1.092-0.216V3.929c0.384,0,0.695-0.071,0.933-0.213c0.238-0.142,0.357-0.369,0.357-0.681c0-0.192-0.047-0.359-0.141-0.501c-0.094-0.142-0.22-0.251-0.378-0.327c-0.158-0.076-0.333-0.114-0.525-0.114c-0.32,0-0.58,0.089-0.78,0.267c-0.2,0.178-0.302,0.413-0.306,0.705l-0.414-0.024c0-0.272,0.065-0.511,0.195-0.717c0.13-0.206,0.307-0.364,0.531-0.474s0.476-0.165,0.756-0.165c0.272,0,0.521,0.053,0.747,0.159s0.405,0.255,0.537,0.447s0.198,0.412,0.198,0.66c0,0.292-0.087,0.526-0.261,0.702c-0.174,0.176-0.395,0.304-0.663,0.384c0.336,0.064,0.618,0.202,0.846,0.414s0.342,0.492,0.342,0.84C29.809,5.587,29.732,5.846,29.581,6.068z M28.92,10.061l4.68-8.364h0.462l-4.68,8.364H28.92z M35.299,5.093v3.354h0.81v0.402h-0.81v1.212h-0.432V8.849h-2.502v-0.27l2.532-3.486H35.299z M34.867,5.729l-1.938,2.718h1.938V5.729z"/></svg>
