<svg xmlns="http://www.w3.org/2000/svg" viewBox="0 0 32 13"><path d="M2.023,9.884c-0.416-0.19-0.755-0.46-1.017-0.81S0.575,8.313,0.499,7.841l0.762-0.186c0.1,0.576,0.343,1.022,0.729,1.338c0.386,0.316,0.881,0.474,1.485,0.474c0.344,0,0.655-0.069,0.933-0.207c0.278-0.138,0.497-0.331,0.657-0.579c0.16-0.248,0.24-0.53,0.24-0.846c0-0.324-0.086-0.595-0.258-0.813C4.875,6.804,4.654,6.625,4.384,6.485c-0.27-0.14-0.643-0.3-1.119-0.48c-0.496-0.192-0.906-0.386-1.23-0.582C1.711,5.227,1.456,4.988,1.27,4.706C1.084,4.424,0.991,4.085,0.991,3.689c0-0.404,0.101-0.766,0.303-1.086c0.202-0.32,0.485-0.571,0.849-0.753c0.364-0.182,0.782-0.273,1.254-0.273c0.516,0,0.969,0.116,1.359,0.348c0.39,0.232,0.707,0.574,0.951,1.026L5.089,3.335c-0.408-0.704-0.978-1.056-1.71-1.056c-0.312,0-0.59,0.061-0.834,0.183S2.112,2.751,1.978,2.963c-0.134,0.212-0.201,0.45-0.201,0.714c0,0.284,0.076,0.524,0.228,0.72C2.157,4.593,2.364,4.76,2.626,4.898c0.262,0.138,0.619,0.291,1.071,0.459C4.213,5.553,4.638,5.75,4.972,5.948c0.334,0.198,0.602,0.446,0.804,0.744C5.978,6.99,6.079,7.355,6.079,7.787c0,0.456-0.112,0.865-0.336,1.227C5.519,9.376,5.207,9.659,4.807,9.863c-0.4,0.204-0.852,0.306-1.356,0.306C2.915,10.169,2.439,10.074,2.023,9.884z"/><path d="M7.603,2.522C7.499,2.416,7.447,2.289,7.447,2.141c0-0.152,0.051-0.279,0.153-0.381c0.102-0.102,0.229-0.153,0.381-0.153c0.148,0,0.273,0.052,0.375,0.156s0.153,0.23,0.153,0.378c0,0.152-0.051,0.28-0.153,0.384S8.129,2.681,7.981,2.681S7.707,2.628,7.603,2.522z M8.353,10.061h-0.75V4.145h0.75V10.061z"/><path d="M13.675,9.644c0.348,0.086,0.642,0.233,0.882,0.441c0.24,0.208,0.36,0.502,0.36,0.882c0,0.528-0.216,0.933-0.648,1.215c-0.432,0.282-1.024,0.423-1.776,0.423c-0.56,0-1.044-0.07-1.452-0.21c-0.408-0.14-0.721-0.342-0.939-0.606c-0.218-0.264-0.327-0.58-0.327-0.948c0-0.12,0.008-0.228,0.024-0.324l1.026-0.804c-0.276-0.12-0.486-0.272-0.63-0.456c-0.144-0.184-0.216-0.416-0.216-0.696c0-0.24,0.052-0.45,0.156-0.63c0.104-0.18,0.26-0.342,0.468-0.486c-0.164-0.172-0.29-0.372-0.378-0.6s-0.132-0.474-0.132-0.738c0-0.396,0.097-0.75,0.291-1.062c0.194-0.312,0.459-0.555,0.795-0.729c0.336-0.174,0.71-0.261,1.122-0.261c0.292,0,0.567,0.046,0.825,0.138c0.258,0.092,0.485,0.224,0.681,0.396l0.936-0.81l0.396,0.492l-0.924,0.81c0.184,0.316,0.276,0.668,0.276,1.056c0,0.388-0.092,0.732-0.276,1.032c-0.184,0.3-0.44,0.532-0.768,0.696c-0.328,0.164-0.706,0.246-1.134,0.246c-0.464,0-0.872-0.096-1.224-0.288c-0.276,0.18-0.414,0.4-0.414,0.66c0,0.196,0.06,0.351,0.18,0.465c0.12,0.114,0.283,0.2,0.489,0.258c0.206,0.058,0.481,0.111,0.825,0.159C12.825,9.465,13.327,9.558,13.675,9.644z M13.699,11.777c0.312-0.164,0.468-0.408,0.468-0.732c0-0.228-0.081-0.405-0.243-0.531c-0.162-0.126-0.371-0.22-0.627-0.282c-0.256-0.062-0.626-0.131-1.11-0.207l-0.132-0.018c-0.308-0.044-0.538-0.086-0.69-0.126l-0.828,0.81c-0.008,0.044-0.012,0.102-0.012,0.174c0,0.372,0.18,0.658,0.54,0.858c0.36,0.2,0.836,0.3,1.428,0.3C12.984,12.023,13.387,11.941,13.699,11.777z M11.544,4.877c-0.22,0.12-0.392,0.287-0.516,0.501c-0.124,0.214-0.186,0.457-0.186,0.729c0,0.268,0.059,0.508,0.177,0.72s0.288,0.378,0.51,0.498c0.222,0.12,0.479,0.18,0.771,0.18c0.292,0,0.546-0.06,0.762-0.18c0.216-0.12,0.383-0.285,0.501-0.495s0.177-0.449,0.177-0.717c0-0.28-0.06-0.527-0.18-0.741s-0.288-0.38-0.504-0.498c-0.216-0.118-0.466-0.177-0.75-0.177C12.019,4.697,11.765,4.757,11.544,4.877z"/><path d="M20.479,4.637c0.356,0.388,0.534,0.966,0.534,1.734v3.69h-0.756v-3.42c0-0.652-0.122-1.135-0.366-1.449c-0.244-0.314-0.612-0.471-1.104-0.471c-0.54,0-0.953,0.191-1.239,0.573c-0.286,0.382-0.429,0.969-0.429,1.761v3.006h-0.756V4.145h0.756v1.026c0.18-0.38,0.428-0.661,0.744-0.843s0.682-0.273,1.098-0.273C19.616,4.055,20.122,4.249,20.479,4.637z"/><path d="M26.698,4.655c0.406,0.4,0.609,0.974,0.609,1.722v3.684h-0.696l-0.048-1.146c-0.216,0.42-0.5,0.731-0.852,0.933s-0.75,0.303-1.194,0.303c-0.44,0-0.821-0.075-1.143-0.225c-0.322-0.15-0.568-0.361-0.738-0.633c-0.17-0.272-0.255-0.59-0.255-0.954c0-0.58,0.208-1.02,0.624-1.32c0.388-0.276,0.944-0.414,1.668-0.414h1.884V6.377c0-0.54-0.139-0.951-0.417-1.233c-0.278-0.282-0.689-0.423-1.233-0.423c-0.372,0-0.701,0.072-0.987,0.216c-0.286,0.144-0.561,0.38-0.825,0.708l-0.552-0.456c0.316-0.392,0.673-0.679,1.071-0.861c0.398-0.182,0.845-0.273,1.341-0.273C25.71,4.055,26.292,4.255,26.698,4.655z M25.57,9.272c0.302-0.174,0.542-0.414,0.72-0.72c0.178-0.306,0.267-0.647,0.267-1.023V7.205h-1.782c-0.548,0-0.96,0.096-1.236,0.288c-0.272,0.204-0.408,0.488-0.408,0.852c0,0.364,0.129,0.653,0.387,0.867c0.258,0.214,0.613,0.321,1.065,0.321C24.938,9.533,25.268,9.446,25.57,9.272z"/><path d="M29.146,9.824c-0.19-0.218-0.285-0.551-0.285-0.999V1.697h0.75v6.99c0,0.508,0.194,0.762,0.582,0.762c0.164,0,0.348-0.036,0.552-0.108v0.66c-0.296,0.1-0.56,0.15-0.792,0.15C29.604,10.151,29.335,10.042,29.146,9.824z"/></svg>
