<svg xmlns="http://www.w3.org/2000/svg" viewBox="0 0 51 13"><path d="M4.516,9.821c-0.194-0.22-0.291-0.552-0.291-0.996V2.543c-0.296-0.208-0.616-0.312-0.96-0.312c-0.417,0-0.731,0.116-0.945,0.348S1.999,3.175,1.999,3.671v0.474h1.272v0.6H1.999v5.316H1.243V4.745h-0.99v-0.6h0.99V3.653c0-0.452,0.087-0.832,0.261-1.14s0.411-0.536,0.711-0.684c0.3-0.148,0.638-0.222,1.014-0.222c0.348,0,0.658,0.048,0.93,0.144c0.272,0.096,0.548,0.242,0.828,0.438v6.51c0,0.508,0.192,0.762,0.576,0.762c0.144,0,0.332-0.04,0.564-0.12v0.66c-0.3,0.1-0.572,0.15-0.816,0.15C4.975,10.151,4.71,10.041,4.516,9.821z"/><path d="M7.615,11.927H7.093l1.278-3.558h0.84L7.615,11.927z"/><path d="M14.053,10.061V4.745h-1.044v-0.6h1.044V3.593c0-0.396,0.098-0.745,0.294-1.047c0.196-0.302,0.463-0.534,0.801-0.696c0.338-0.162,0.715-0.243,1.131-0.243c0.592,0,1.108,0.154,1.548,0.462c0.36-0.308,0.832-0.462,1.416-0.462c0.348,0,0.665,0.046,0.951,0.138c0.286,0.092,0.559,0.232,0.819,0.42l-0.366,0.522c-0.392-0.304-0.85-0.456-1.374-0.456c-0.444,0-0.778,0.115-1.002,0.345c-0.224,0.23-0.336,0.595-0.336,1.095v0.474h3.132v5.916h-0.75V4.745h-2.382v5.316h-0.75V4.745h-2.382v5.316H14.053z M14.803,4.145h2.382V3.653c0-0.24,0.025-0.46,0.075-0.66c0.05-0.2,0.115-0.35,0.195-0.45c-0.328-0.208-0.708-0.312-1.14-0.312c-0.312,0-0.582,0.057-0.81,0.171c-0.228,0.114-0.402,0.274-0.522,0.48c-0.12,0.206-0.18,0.447-0.18,0.723V4.145z"/><path d="M22.987,11.927h-0.522l1.278-3.558h0.84L22.987,11.927z"/><path d="M35.974,9.821c-0.19-0.22-0.285-0.552-0.285-0.996v-6.3c-0.328-0.196-0.676-0.294-1.044-0.294c-0.444,0-0.778,0.115-1.002,0.345c-0.224,0.23-0.336,0.595-0.336,1.095v0.474h1.356v0.6h-1.356v5.316h-0.75V4.745h-2.382v5.316h-0.75V4.745h-1.044v-0.6h1.044V3.593c0-0.396,0.098-0.745,0.294-1.047c0.196-0.302,0.463-0.534,0.801-0.696c0.338-0.162,0.715-0.243,1.131-0.243c0.284,0,0.558,0.038,0.822,0.114c0.264,0.076,0.506,0.188,0.726,0.336c0.176-0.148,0.386-0.26,0.63-0.336c0.244-0.076,0.506-0.114,0.786-0.114c0.356,0,0.677,0.048,0.963,0.144c0.286,0.096,0.573,0.24,0.861,0.432v6.48c0,0.276,0.047,0.478,0.141,0.606c0.094,0.128,0.239,0.192,0.435,0.192c0.148,0,0.332-0.04,0.552-0.12v0.66c-0.284,0.1-0.55,0.15-0.798,0.15C36.429,10.151,36.164,10.041,35.974,9.821z M30.175,4.145h2.382V3.653c0-0.44,0.092-0.81,0.276-1.11c-0.336-0.208-0.718-0.312-1.146-0.312c-0.472,0-0.842,0.127-1.11,0.381c-0.268,0.254-0.402,0.601-0.402,1.041V4.145z"/><path d="M39.061,11.927h-0.522l1.278-3.558h0.84L39.061,11.927z"/><path d="M49.338,4.145v5.916h-0.75V4.745h-2.34v5.316h-0.75V4.745h-1.044v-0.6h1.044V3.653c0-0.452,0.091-0.832,0.273-1.14S46.2,1.977,46.51,1.829c0.31-0.148,0.661-0.222,1.053-0.222c0.352,0,0.67,0.047,0.954,0.141c0.284,0.094,0.56,0.233,0.828,0.417l-0.366,0.522c-0.404-0.304-0.864-0.456-1.38-0.456c-0.444,0-0.78,0.118-1.008,0.354c-0.228,0.236-0.342,0.612-0.342,1.128v0.432H49.338z"/></svg>
