<svg xmlns="http://www.w3.org/2000/svg" viewBox="0 0 32 13"><path d="M2.023,9.884c-0.416-0.19-0.755-0.46-1.017-0.81S0.575,8.313,0.499,7.841l0.762-0.186c0.1,0.576,0.343,1.022,0.729,1.338c0.386,0.316,0.881,0.474,1.485,0.474c0.344,0,0.655-0.069,0.933-0.207c0.278-0.138,0.497-0.331,0.657-0.579c0.16-0.248,0.24-0.53,0.24-0.846c0-0.324-0.086-0.595-0.258-0.813C4.875,6.804,4.654,6.625,4.384,6.485c-0.27-0.14-0.643-0.3-1.119-0.48c-0.496-0.192-0.906-0.386-1.23-0.582C1.711,5.227,1.456,4.988,1.27,4.706C1.084,4.424,0.991,4.085,0.991,3.689c0-0.404,0.101-0.766,0.303-1.086c0.202-0.32,0.485-0.571,0.849-0.753c0.364-0.182,0.782-0.273,1.254-0.273c0.516,0,0.969,0.116,1.359,0.348c0.39,0.232,0.707,0.574,0.951,1.026L5.089,3.335c-0.408-0.704-0.978-1.056-1.71-1.056c-0.312,0-0.59,0.061-0.834,0.183S2.112,2.751,1.978,2.963c-0.134,0.212-0.201,0.45-0.201,0.714c0,0.284,0.076,0.524,0.228,0.72C2.157,4.593,2.364,4.76,2.626,4.898c0.262,0.138,0.619,0.291,1.071,0.459C4.213,5.553,4.638,5.75,4.972,5.948c0.334,0.198,0.602,0.446,0.804,0.744C5.978,6.99,6.079,7.355,6.079,7.787c0,0.456-0.112,0.865-0.336,1.227C5.519,9.376,5.207,9.659,4.807,9.863c-0.4,0.204-0.852,0.306-1.356,0.306C2.915,10.169,2.439,10.074,2.023,9.884z"/><path d="M8.227,2.993h-0.81V1.697h0.81V2.993z M8.197,10.061h-0.75V4.145h0.75V10.061z"/><path d="M14.563,4.145h0.75v5.772c0,0.924-0.25,1.602-0.75,2.034c-0.5,0.432-1.18,0.648-2.04,0.648c-0.596,0-1.112-0.137-1.548-0.411s-0.772-0.643-1.008-1.107l0.588-0.456c0.18,0.396,0.439,0.714,0.777,0.954c0.338,0.24,0.733,0.36,1.185,0.36c1.364,0,2.046-0.674,2.046-2.022V8.783c-0.208,0.38-0.492,0.675-0.852,0.885c-0.36,0.21-0.766,0.315-1.218,0.315c-0.532,0-1.004-0.131-1.416-0.393c-0.412-0.262-0.731-0.619-0.957-1.071S9.781,7.565,9.781,7.013c0-0.568,0.118-1.077,0.354-1.527c0.236-0.45,0.56-0.801,0.972-1.053c0.412-0.252,0.874-0.378,1.386-0.378c0.456,0,0.865,0.108,1.227,0.324c0.362,0.216,0.643,0.51,0.843,0.882V4.145z M13.636,8.981c0.31-0.196,0.552-0.465,0.726-0.807c0.174-0.342,0.261-0.725,0.261-1.149c0-0.428-0.087-0.815-0.261-1.161c-0.174-0.346-0.416-0.618-0.726-0.816c-0.31-0.198-0.659-0.297-1.047-0.297c-0.392,0-0.744,0.099-1.056,0.297c-0.312,0.198-0.557,0.47-0.735,0.816c-0.178,0.346-0.267,0.733-0.267,1.161c0,0.424,0.087,0.807,0.261,1.149c0.174,0.342,0.417,0.611,0.729,0.807c0.312,0.196,0.666,0.294,1.062,0.294C12.975,9.275,13.326,9.177,13.636,8.981z"/><path d="M21.277,4.637c0.356,0.388,0.534,0.966,0.534,1.734v3.69h-0.756v-3.42c0-0.652-0.122-1.135-0.366-1.449c-0.244-0.314-0.612-0.471-1.104-0.471c-0.54,0-0.953,0.191-1.239,0.573c-0.286,0.382-0.429,0.969-0.429,1.761v3.006h-0.756V4.145h0.756v1.026c0.18-0.38,0.428-0.661,0.744-0.843s0.682-0.273,1.098-0.273C20.415,4.055,20.92,4.249,21.277,4.637z"/><path d="M27.496,4.655c0.406,0.4,0.609,0.974,0.609,1.722v3.684h-0.696l-0.048-1.146c-0.216,0.42-0.5,0.731-0.852,0.933s-0.75,0.303-1.194,0.303c-0.44,0-0.821-0.075-1.143-0.225c-0.322-0.15-0.568-0.361-0.738-0.633c-0.17-0.272-0.255-0.59-0.255-0.954c0-0.58,0.208-1.02,0.624-1.32c0.388-0.276,0.944-0.414,1.668-0.414h1.884V6.377c0-0.54-0.139-0.951-0.417-1.233c-0.278-0.282-0.689-0.423-1.233-0.423c-0.372,0-0.701,0.072-0.987,0.216c-0.286,0.144-0.561,0.38-0.825,0.708l-0.552-0.456c0.316-0.392,0.673-0.679,1.071-0.861c0.398-0.182,0.845-0.273,1.341-0.273C26.509,4.055,27.09,4.255,27.496,4.655z M26.368,9.272c0.302-0.174,0.542-0.414,0.72-0.72c0.178-0.306,0.267-0.647,0.267-1.023V7.205h-1.782c-0.548,0-0.96,0.096-1.236,0.288c-0.272,0.204-0.408,0.488-0.408,0.852c0,0.364,0.129,0.653,0.387,0.867c0.258,0.214,0.613,0.321,1.065,0.321C25.737,9.533,26.066,9.446,26.368,9.272z"/><path d="M29.944,9.824c-0.19-0.218-0.285-0.551-0.285-0.999V1.697h0.75v6.99c0,0.508,0.194,0.762,0.582,0.762c0.164,0,0.348-0.036,0.552-0.108v0.66c-0.296,0.1-0.56,0.15-0.792,0.15C30.403,10.151,30.134,10.042,29.944,9.824z"/></svg>
