<svg xmlns="http://www.w3.org/2000/svg" viewBox="0 0 14 13"><path d="M1.861,1.697l4.326,7.098V1.697h0.78v8.364h-0.87L1.783,2.957v7.104h-0.78V1.697H1.861z M9.205,7.853C8.841,7.625,8.558,7.314,8.356,6.92C8.154,6.526,8.053,6.089,8.053,5.609c0-0.468,0.102-0.897,0.306-1.287c0.204-0.39,0.488-0.699,0.852-0.927c0.364-0.228,0.776-0.342,1.236-0.342s0.874,0.114,1.242,0.342c0.368,0.228,0.655,0.537,0.861,0.927c0.206,0.39,0.309,0.819,0.309,1.287c0,0.476-0.104,0.912-0.312,1.308s-0.495,0.708-0.861,0.936c-0.366,0.228-0.779,0.342-1.239,0.342C9.983,8.195,9.569,8.081,9.205,7.853z M12.571,10.061H8.167V9.473h4.404V10.061z M9.52,3.875c-0.262,0.176-0.463,0.416-0.603,0.72c-0.14,0.304-0.21,0.642-0.21,1.014c0,0.384,0.07,0.73,0.21,1.038c0.14,0.308,0.341,0.551,0.603,0.729c0.262,0.178,0.571,0.267,0.927,0.267s0.667-0.09,0.933-0.27s0.47-0.424,0.612-0.732c0.142-0.308,0.213-0.652,0.213-1.032c0-0.372-0.071-0.709-0.213-1.011c-0.142-0.302-0.346-0.542-0.612-0.72c-0.266-0.178-0.577-0.267-0.933-0.267S9.782,3.699,9.52,3.875z"/></svg>
